<svg xmlns="http://www.w3.org/2000/svg" viewBox="24 24 448 448" width="512" height="512">
  <path d="M0 512h512V0H0v512Z" stroke="None"/>
  <path d="M381 252c-6-6 17 3 21-6-17-9-38-17-46-36 2-21 32-26 51-15 19-20-13-24-23-27-17 1-30 1-42 13-26 23-8 63 20 69Z" fill="#f0f8ff" stroke="None"/>
  <path d="M363 254c7 0-1-5 13-2-40-12-58-47-32-70 8-8 23-12 36-11 11 0 39 7 26 21-18-8-54-8-51 20 4 19 30 28 47 34 8 4 16 5 25 6-10-12-25-16-38-23-10-6-35-22-15-30 15-9 37 13 44-6 8-21-13-27-25-30-17-4-34-2-49 6-32 18-31 64 5 84Z" fill="#566e85" stroke="None"/>
  <path d="M243 245c8 0 17-1 24-4v-47h39v-19H202v19h41v51Z" fill="#f0f8ff" stroke="None"/>
  <path d="M233 243v-40h-38v-36h117v36h-35v35l-10 3v-47h39v-19H202v19h41v51l-10-2Z" fill="#566e85" stroke="None"/>
  <path d="M87 246c26 14 60 9 85 4 8-27 8-56-12-70-23-12-51-9-73-10v76m20-6v-52c21 1 48 0 49 27-1 26-29 22-49 25Z" fill="#f0f8ff" stroke="None"/>
  <path d="M78 245v-81h39c6 1 54-4 66 35 3 12 3 29-2 49-2-10-5-8-10-2 10-25 6-53-14-64-19-10-47-9-70-8v72c0 8-6-2-4 2Z" fill="#566e85" stroke="None"/>
  <path d="M107 240c20 2 49 2 49-25s-28-29-49-27v52m7-7v-37c14-2 33-1 33 18s-19 21-33 19Z" fill="#566e85" stroke="None"/>
  <path d="M243 273c8 0 16-1 24-4v41h-24v-37Z" stroke="None"/>
  <path d="M267 267c4 1 7-2 8-9v49c0 12-9 11-20 11-12 0-21 1-21-11v-38c3 3 6 5 9 2v39h24v-41Z" fill="#566e85" stroke="None"/>
  <g stroke="None">
    <path d="m142 275 19 36h24c-7-14-14-29-24-41l-19 5Z"/>
    <path d="m164 267 3-3 17 27c4 8 11 18 10 26h-40c-5-14-14-27-20-42 4 3 5 0 7-3l20 39h24c-7-14-14-29-26-43Z" fill="#566e85"/>
  </g>
  <path d="M108 278v33H87v-39l21 6Z" stroke="None"/>
  <path d="M113 278c-2 0-3 1-5-2v35H87v-42c-3 2-5 1-8-2l-1 50h39v-42Z" fill="#566e85" stroke="None"/>
  <path d="M417 278c-6 46-68 48-95 25 5-24 25-11 39-9 15 4 28-9 29-25l27 9Z" stroke="None"/>
  <path d="M428 280c-6 27-29 45-56 46-25 0-27-2-42-7-22-9-27-14-16-33 9-10 19-9 29-6 21 8 32 3 34-11 7 2 12 0 14 1-2 24-25 26-30 27-20 2-31-16-38 3 32 22 83 18 94-23 2 2 5 2 8-5Z" fill="#566e85" stroke="None"/>
  <path d="M280 235c-23 6-21 8-46 6-30-5-26-10-62 0-28 8-59 19-84 5l-10-3c-13-1-26-1-38 5-11 6-15 15 2 19 12 1 21-1 31 2l15 5 18 5 15 1 14-1c8-1 5-2 38-12 18-7 38-1 49 2 15 3 18 5 26 4 10 0 11-1 28-7 18-8 35 1 52 4 17 5 19 6 38 4 18-4 22-3 33 0 5 1 9 3 25 5 12 2 25 0 35-1 16-4 10-18 1-23-10-5-22-1-36-4l-22-6c-11-2-27-1-38 2-7 2-14 2-20 1-22-4-42-20-64-13Z" fill="#35495d" stroke="None"/>
</svg>
