<svg xmlns="http://www.w3.org/2000/svg"
viewBox = "24 24 448 448"
width="512"
height="512">
<g fill="#000000" fill-opacity="1.00" stroke="None">
<path d="
M0 512H512V0H0V512Z"/>
</g>
<g fill="#f0f8ff" fill-opacity="1.00" stroke="None">
<path d="
M381 252C375.09 246.45 398 255 402 246 385.13 237.19 363.66 229.1 356 210 358 189 388.22 183.78 407 195 426 175 394 171 384 168 367.27 169.2 354 169 342 181 316 204 334 244 362 250Z"/>
</g>
<g fill="#566e85" fill-opacity="1.00" stroke="None">
<path d="
M363 254c7 0-.81-5.13 13-2-39.66-11.53-58-46.71-32-70 8.46-7.79 23-12 36-11 11 0 39 7 26 21-17.78-8.22-53.71-7.65-51 20 4 19 30 28 47 34 7.83 3.71 16.47 4.66 25 6-9.93-11.74-25.03-16.34-38-23-9.78-5.75-35.31-21.59-15.07-30.07C389 190 411 212 418 193c8-21-13-27-25-30-16.83-4.45-34-2-49 6-32 18-31.03 64.29 5 84Z"/>
</g>
<g fill="#f0f8ff" fill-opacity="1.00" stroke="None">
<path d="
M243 245c8.37.45 16.89-1 24-4 0-15.67 0-31.33 0-47 13 0 26 0 39 0 0-6.33 0-12.67 0-19-34.67 0-69.33 0-104 0 0 6.33 0 12.67 0 19 13.67 0 27.33 0 41 0 0 17 0 34 0 51Z"/>
</g>
<g fill="#566e85" fill-opacity="1.00" stroke="None">
<path d="
M233 243c0-13.33 0-26.67 0-40-12.67 0-25.33 0-38 0 0-12 0-24 0-36 39 0 78 0 117 0 0 12 0 24 0 36-11.67 0-23.33 0-35 0 0 11.67 0 23.33 0 35-3.47.62-6.57 2.38-10 3 0-15.67 0-31.33 0-47 13 0 26 0 39 0 0-6.33 0-12.67 0-19-34.67 0-69.33 0-104 0 0 6.33 0 12.67 0 19 13.67 0 27.33 0 41 0 0 17 0 34 0 51-3.55.18-6.85-.72-10-2Z"/>
</g>
<g fill="#f0f8ff" fill-opacity="1.00" stroke="None">
<path d="
M87 246c26.1 13.98 60.18 9.06 85 4 8.11-27.17 7.96-56.25-12-70C137.49 167.6 109.47 170.96 87 170c0 29.33 0 52.67 0 76m20-6c0-17.33 0-34.67 0-52 21 1 48 0 49 27-1 26-29 22-49 25Z"/>
</g>
<g fill="#566e85" fill-opacity="1.00" stroke="None">
<path d="
M78 245c0-16.67 0-31.33 0-46V164c9 0 6 0 39 0 6 1 54-4 66 35 3.39 12.3 3 29-2 49-2.02-9.67-5.4-7.84-10-2 10-25 6-53-14-64-19-10-47-9-70-8 0 25.33 0 48.67 0 72 0 8-6.08-1.72-4 2Z"/>
</g>
<g fill="#566e85" fill-opacity="1.00" stroke="None">
<path d="
M107 240c20.14 2.1 49 2 49-25s-28.46-29.5-49-27c0 17.33 0 34.67 0 52m7-7c0-12.33 0-24.67 0-37 13.84-1.59 33-1 33 18s-18.94 20.77-33 19Z"/>
</g>
<g fill="#000000" fill-opacity="1.00" stroke="None">
<path d="
M243 273c8.4.25 16.46-.95 24-4 0 13.67 0 27.33 0 41-8 0-16 0-24 0 0-12.33 0-24.67 0-37Z"/>
</g>
<g fill="#566e85" fill-opacity="1.00" stroke="None">
<path d="
M267 267c3.53.65 6.5-1.92 8-9v49c0 12-9 11-20 11-12 0-21 1-21-11-.33-11.5 0-24 0-38 3.01 3.21 5.77 4.56 9 2 0 14.33 0 26.67 0 39 8 0 16 0 24 0 0-13.67 0-27.33 0-41Z"/>
</g>
<g fill="#000000" fill-opacity="1.00" stroke="None">
<path d="
M142 275c5.83 12.28 13.3 23.83 19 36 8 0 16 0 24 0-6.52-14.23-14.22-28.67-24-41-6.56.92-12.65 3.44-19 5Z"/>
<g fill="#566e85" fill-opacity="1.00" stroke="None">
<path d="
M164 267s1-1 3-3c7 11 13 20 17 27 4 8 11 18 9.9 25.9-13.3.23-26.6.04-39.9.1-4.89-13.6-14-27-20-42 3.72 2.63 5.41-.07 7-3 6.83 15.28 14.3 26.83 20 39 8 0 16 0 24 0-7-14-14.22-28.67-26-43Z"/>
</g>
</g>
<g fill="#000000" fill-opacity="1.00" stroke="None">
<path d="
M108 278c0 11 0 22 0 33-7 0-14 0-21 0 0-13 0-26 0-39 6.62 3.36 14.09 3.63 21 6Z"/>
</g>
<g fill="#566e85" fill-opacity="1.00" stroke="None">
<path d="
M113 278c-2 0-3 1-5-2 0 13 0 24 0 35-7 0-14 0-21 0 0-13 0-26 0-42-2.55 1.64-5.2.52-8-2-1 17-.33 34.17-1 50 13 0 26 0 39 0 0-12.67 0-25.33 0-42Z"/>
</g>
<g fill="#000000" fill-opacity="1.00" stroke="None">
<path d="
M417 278c-6 46-68 48-95 25 5.24-24.07 25-11 39-9 14.51 4.46 28-9 29-25 9.87 3.48 18.25 6.92 27 9Z"/>
</g>
<g fill="#566e85" fill-opacity="1.00" stroke="None">
<path d="
M428 280c-6 27-29 45-56 46-25 0-27-2-42-7-22-9-27-14-16-33 9-10 19-9 29-6 21 8 32 3 34-11 7.1 1.68 11.58-.18 13.93 1.07C389 294 366 296 361 297c-20 2-31.07-15.93-38.07 3.07 31.76 21.44 83 18 94-23 2.17 2.23 4.68 2.22 8-5Z"/>
</g>
<g fill="#35495d" fill-opacity="1.00" stroke="None">
<path d="
M280 235c-23 6-21 8-46 6-30-5-26-10-62 0-28 8-58.9 18.98-84 5-3-1-6-2-10-3-13.27-.75-26-1-38 5-11 6-15 15 2 19 12 1 21-1 31 2 7 2 9 3 15 5 5.62 1.36 11 4 18 5 6 1 7 1 15 1 3 0 8.51-.34 14-1 8-1 5-2 38-12 18-7 38-1 49 2 15.01 3.21 17.77 4.56 26 4 10 0 11.46-.95 28-7 18.35-8.35 35.26.67 51.67 4.33C344.58 274.95 347 276 366 274c18-4 22-3 33 0 5 1 9 3 25 5 12 2 25 0 35-1 16-4 10-18 1-23-10.13-4.99-22-1-36-4-6-1-13-4-22-6-11-2-27-1-38 2-6.81 1.87-14 2-20 1-22.05-4.31-42-20-64-13Z"/>
</g>
</svg>