<svg xmlns="http://www.w3.org/2000/svg" xmlns:v="https://svgstorm.com"
viewBox = "0 0 512 512"
width="512"
height="512">
<g fill="None" fill-opacity="0.0" stroke="#000000" stroke-opacity="1.00" stroke-width="0.3"><path d="
M 0.00 512.00 
L 512.00 512.00
L 512.00 0.00
L 0.00 0.00
L 0.00 512.00
M 427.00 252.00 
C 438.13 250.75 449.87 250.01 460.00 255.00
C 459.04 262.63 456.89 270.27 459.00 278.00
C 467.67 295.37 471.08 321.93 456.75 337.75 C 444.80 355.99 420.51 356.95 402.33 348.67 C 379.70 338.38 359.45 355.43 337.00 354.00 C 316.42 349.94 294.24 343.98 274.92 355.92 C 254.48 364.37 230.84 358.35 210.93 352.07 C 168.71 330.98 126.08 365.11 82.00 361.00 C 63.21 360.86 37.40 354.09 35.01 331.99 C 25.94 309.11 46.20 290.26 42.00 267.00
C 40.68 260.86 39.69 254.57 40.00 248.00
C 51.82 243.24 64.73 242.25 78.00 243.00
C 78.00 228.33 78.00 213.67 78.00 199.00 C 80.00 186.83 71.20 165.54 89.22 165.22 C 123.16 159.56 172.64 158.53 184.31 198.69 C 186.39 211.30 188.31 227.00 183.00 239.00
C 200.18 238.31 216.77 239.83 233.00 243.00
C 233.00 229.67 233.00 216.33 233.00 203.00
C 220.33 203.00 207.67 203.00 195.00 203.00
C 195.00 191.00 195.00 179.00 195.00 167.00
C 234.00 167.00 273.00 167.00 312.00 167.00
C 312.00 179.00 312.00 191.00 312.00 203.00
C 300.33 203.00 288.67 203.00 277.00 203.00
C 277.00 214.67 277.00 226.33 277.00 238.00
C 299.87 227.25 321.95 243.69 344.00 248.00
C 312.97 233.29 314.55 186.64 343.70 170.70 C 357.45 160.87 376.17 158.55 392.22 163.78 C 405.39 167.02 429.91 175.61 417.08 193.08 C 409.22 214.92 388.58 194.86 373.93 198.93 C 353.69 207.41 379.22 223.25 389.70 227.31 C 401.97 235.66 417.07 240.26 427.00 252.00 Z"/>
</g>
<g fill="None" fill-opacity="0.0" stroke="#2F8A58" stroke-opacity="1.00" stroke-width="0.3"><path d="
M 344.00 248.00 
C 350.03 250.23 357.19 248.87 363.00 247.00
C 336.34 240.47 318.00 205.29 342.75 184.75 C 352.46 174.21 367.27 169.20 381.22 171.78 C 391.66 174.44 418.22 176.47 406.00 192.00
C 388.22 183.78 352.29 184.35 354.78 211.22 C 363.66 229.10 385.13 237.19 402.00 246.00
C 409.83 249.71 418.47 250.66 427.00 252.00
C 417.07 240.26 401.97 235.66 389.70 227.31 C 379.22 223.25 353.69 207.41 373.93 198.93 C 388.58 194.86 409.22 214.92 417.08 193.08 C 429.91 175.61 405.39 167.02 392.22 163.78 C 376.17 158.55 357.45 160.87 343.70 170.70 C 314.55 186.64 312.97 233.29 344.00 248.00 Z"/>
</g>
<g fill="None" fill-opacity="0.0" stroke="#308A57" stroke-opacity="1.00" stroke-width="0.3"><path d="
M 78.00 243.00 
C 80.92 244.28 83.90 245.25 87.00 246.00
C 87.00 222.67 87.00 199.33 87.00 176.00
C 109.47 170.96 137.49 167.60 158.23 179.77 C 178.96 191.75 179.11 220.83 172.00 241.00
C 175.60 240.16 178.98 238.33 183.00 239.00
C 188.31 227.00 186.39 211.30 184.31 198.69 C 172.64 158.53 123.16 159.56 89.22 165.22 C 71.20 165.54 80.00 186.83 78.00 199.00 C 78.00 213.67 78.00 228.33 78.00 243.00 Z"/>
</g>
<g fill="None" fill-opacity="0.0" stroke="#2E8B57" stroke-opacity="1.00" stroke-width="0.3"><path d="
M 233.00 243.00 
C 236.15 244.28 239.45 245.18 243.00 245.00
C 243.00 228.00 243.00 211.00 243.00 194.00
C 229.33 194.00 215.67 194.00 202.00 194.00
C 202.00 187.67 202.00 181.33 202.00 175.00
C 236.67 175.00 271.33 175.00 306.00 175.00
C 306.00 181.33 306.00 187.67 306.00 194.00
C 293.00 194.00 280.00 194.00 267.00 194.00
C 267.00 209.67 267.00 225.33 267.00 241.00
C 270.43 240.38 273.53 238.62 277.00 238.00
C 277.00 226.33 277.00 214.67 277.00 203.00
C 288.67 203.00 300.33 203.00 312.00 203.00
C 312.00 191.00 312.00 179.00 312.00 167.00
C 273.00 167.00 234.00 167.00 195.00 167.00
C 195.00 179.00 195.00 191.00 195.00 203.00
C 207.67 203.00 220.33 203.00 233.00 203.00
C 233.00 216.33 233.00 229.67 233.00 243.00 Z"/>
</g>
<g fill="None" fill-opacity="0.0" stroke="#EEF7FD" stroke-opacity="1.00" stroke-width="0.3"><path d="
M 363.00 247.00 
C 375.09 246.45 390.27 243.69 402.00 246.00
C 385.13 237.19 363.66 229.10 354.78 211.22 C 352.29 184.35 388.22 183.78 406.00 192.00
C 418.22 176.47 391.66 174.44 381.22 171.78 C 367.27 169.20 352.46 174.21 342.75 184.75 C 318.00 205.29 336.34 240.47 363.00 247.00 Z"/>
</g>
<g fill="None" fill-opacity="0.0" stroke="#EFF7FE" stroke-opacity="1.00" stroke-width="0.3"><path d="
M 87.00 246.00 
C 113.10 259.98 147.18 255.06 172.00 241.00
C 179.11 220.83 178.96 191.75 158.23 179.77 C 137.49 167.60 109.47 170.96 87.00 176.00
C 87.00 199.33 87.00 222.67 87.00 246.00
M 107.00 240.00 
C 107.00 222.67 107.00 205.33 107.00 188.00
C 127.54 185.50 158.95 187.01 156.00 215.00 C 158.39 242.10 127.14 242.10 107.00 240.00 Z"/>
</g>
<g fill="None" fill-opacity="0.0" stroke="#EFF7FE" stroke-opacity="1.00" stroke-width="0.3"><path d="
M 243.00 245.00 
C 251.37 245.45 259.89 244.00 267.00 241.00
C 267.00 225.33 267.00 209.67 267.00 194.00
C 280.00 194.00 293.00 194.00 306.00 194.00
C 306.00 187.67 306.00 181.33 306.00 175.00
C 271.33 175.00 236.67 175.00 202.00 175.00
C 202.00 181.33 202.00 187.67 202.00 194.00
C 215.67 194.00 229.33 194.00 243.00 194.00
C 243.00 211.00 243.00 228.00 243.00 245.00 Z"/>
</g>
<g fill="None" fill-opacity="0.0" stroke="#2F8B57" stroke-opacity="1.00" stroke-width="0.3"><path d="
M 107.00 240.00 
C 127.14 242.10 158.39 242.10 156.00 215.00 C 158.95 187.01 127.54 185.50 107.00 188.00
C 107.00 205.33 107.00 222.67 107.00 240.00
M 114.00 233.00 
C 114.00 220.67 114.00 208.33 114.00 196.00
C 127.84 194.41 149.14 195.00 147.00 214.00 C 150.49 233.77 128.06 234.77 114.00 233.00 Z"/>
</g>
<g fill="None" fill-opacity="0.0" stroke="#000000" stroke-opacity="1.00" stroke-width="0.3"><path d="
M 114.00 233.00 
C 128.06 234.77 150.49 233.77 147.00 214.00 C 149.14 195.00 127.84 194.41 114.00 196.00
C 114.00 208.33 114.00 220.67 114.00 233.00 Z"/>
</g>
<g fill="None" fill-opacity="0.0" stroke="#68C59C" stroke-opacity="1.00" stroke-width="0.3"><path d="
M 277.00 238.00 
C 273.53 238.62 270.43 240.38 267.00 241.00
C 259.89 244.00 251.37 245.45 243.00 245.00
C 239.45 245.18 236.15 244.28 233.00 243.00
C 216.77 239.83 200.18 238.31 183.00 239.00
C 178.98 238.33 175.60 240.16 172.00 241.00
C 147.18 255.06 113.10 259.98 87.00 246.00
C 83.90 245.25 80.92 244.28 78.00 243.00
C 64.73 242.25 51.82 243.24 40.00 248.00
C 39.69 254.57 40.68 260.86 42.00 267.00
C 54.46 266.14 67.85 263.11 79.00 269.00
C 81.80 269.52 84.45 270.64 87.00 272.00
C 93.62 275.36 101.09 275.63 108.00 278.00
C 110.58 279.82 114.02 278.67 117.00 279.00
C 123.16 278.93 129.51 279.66 135.00 277.00
C 137.72 277.63 139.41 274.93 142.00 275.00
C 148.35 273.44 154.44 270.92 161.00 270.00
C 163.10 268.38 166.29 267.73 169.00 267.00
C 190.25 257.73 214.14 263.50 234.00 272.00
C 237.01 272.21 239.77 273.56 243.00 273.00
C 251.40 273.25 259.46 272.05 267.00 269.00
C 270.53 267.65 273.50 265.08 277.00 264.00
C 294.35 257.65 311.26 266.67 327.67 270.33 C 344.58 274.95 364.25 275.87 381.00 270.00
C 384.17 270.61 388.65 268.75 391.00 271.00
C 399.87 272.48 408.25 275.92 417.00 278.00
C 419.17 279.23 421.68 279.22 424.00 280.00
C 435.91 284.72 447.23 270.71 459.00 278.00
C 456.89 270.27 459.04 262.63 460.00 255.00
C 449.87 250.01 438.13 250.75 427.00 252.00
C 418.47 250.66 409.83 249.71 402.00 246.00
C 390.27 243.69 375.09 246.45 363.00 247.00
C 357.19 248.87 350.03 250.23 344.00 248.00
C 321.95 243.69 299.87 227.25 277.00 238.00 Z"/>
</g>
<g fill="None" fill-opacity="0.0" stroke="#3BA47D" stroke-opacity="1.00" stroke-width="0.3"><path d="
M 169.00 267.00 
C 173.30 275.54 178.92 283.23 183.30 291.70 C 186.81 299.53 197.74 309.16 193.90 316.90 C 180.60 317.13 167.30 316.94 154.00 317.00
C 149.11 303.40 137.61 290.41 135.00 277.00
C 129.51 279.66 123.16 278.93 117.00 279.00
C 117.00 291.67 117.00 304.33 117.00 317.00
C 104.00 317.00 91.00 317.00 78.00 317.00
C 78.67 301.17 76.67 284.01 79.00 269.00
C 67.85 263.11 54.46 266.14 42.00 267.00
C 46.20 290.26 25.94 309.11 35.01 331.99 C 37.40 354.09 63.21 360.86 82.00 361.00 C 126.08 365.11 168.71 330.98 210.93 352.07 C 230.84 358.35 254.48 364.37 274.92 355.92 C 294.24 343.98 316.42 349.94 337.00 354.00 C 359.45 355.43 379.70 338.38 402.33 348.67 C 420.51 356.95 444.80 355.99 456.75 337.75 C 471.08 321.93 467.67 295.37 459.00 278.00
C 447.23 270.71 435.91 284.72 424.00 280.00
C 422.56 304.49 395.37 321.72 372.00 323.00 C 357.85 323.46 344.69 319.85 331.93 315.07 C 317.99 312.54 309.93 300.04 319.92 287.92 C 323.31 270.10 338.92 282.15 350.07 283.93 C 361.62 288.31 382.78 287.06 381.00 270.00
C 364.25 275.87 344.58 274.95 327.67 270.33 C 311.26 266.67 294.35 257.65 277.00 264.00
C 273.18 281.67 288.78 320.83 259.00 317.00 C 250.08 316.05 231.57 321.33 233.00 307.00 C 233.67 295.50 231.67 282.68 234.00 272.00
C 214.14 263.50 190.25 257.73 169.00 267.00 Z"/>
</g>
<g fill="None" fill-opacity="0.0" stroke="#2F8B57" stroke-opacity="1.00" stroke-width="0.3"><path d="
M 267.00 269.00 
C 267.00 282.67 267.00 296.33 267.00 310.00
C 259.00 310.00 251.00 310.00 243.00 310.00
C 243.00 297.67 243.00 285.33 243.00 273.00
C 239.77 273.56 237.01 272.21 234.00 272.00
C 231.67 282.68 233.67 295.50 233.00 307.00 C 231.57 321.33 250.08 316.05 259.00 317.00 C 288.78 320.83 273.18 281.67 277.00 264.00
C 273.50 265.08 270.53 267.65 267.00 269.00 Z"/>
</g>
<g fill="None" fill-opacity="0.0" stroke="#2E8A56" stroke-opacity="1.00" stroke-width="0.3"><path d="
M 161.00 270.00 
C 170.78 282.33 178.48 296.77 185.00 311.00
C 177.00 311.00 169.00 311.00 161.00 311.00
C 155.30 298.83 147.83 287.28 142.00 275.00
C 139.41 274.93 137.72 277.63 135.00 277.00
C 137.61 290.41 149.11 303.40 154.00 317.00
C 167.30 316.94 180.60 317.13 193.90 316.90 C 197.74 309.16 186.81 299.53 183.30 291.70 C 178.92 283.23 173.30 275.54 169.00 267.00
C 166.29 267.73 163.10 268.38 161.00 270.00 Z"/>
</g>
<g fill="None" fill-opacity="0.0" stroke="#2F8B57" stroke-opacity="1.00" stroke-width="0.3"><path d="
M 117.00 279.00 
C 114.02 278.67 110.58 279.82 108.00 278.00
C 108.00 289.00 108.00 300.00 108.00 311.00
C 101.00 311.00 94.00 311.00 87.00 311.00
C 87.00 298.00 87.00 285.00 87.00 272.00
C 84.45 270.64 81.80 269.52 79.00 269.00
C 76.67 284.01 78.67 301.17 78.00 317.00
C 91.00 317.00 104.00 317.00 117.00 317.00
C 117.00 304.33 117.00 291.67 117.00 279.00 Z"/>
</g>
<g fill="None" fill-opacity="0.0" stroke="#000000" stroke-opacity="1.00" stroke-width="0.3"><path d="
M 243.00 273.00 
C 243.00 285.33 243.00 297.67 243.00 310.00
C 251.00 310.00 259.00 310.00 267.00 310.00
C 267.00 296.33 267.00 282.67 267.00 269.00
C 259.46 272.05 251.40 273.25 243.00 273.00 Z"/>
</g>
<g fill="None" fill-opacity="0.0" stroke="#000000" stroke-opacity="1.00" stroke-width="0.3"><path d="
M 142.00 275.00 
C 147.83 287.28 155.30 298.83 161.00 311.00
C 169.00 311.00 177.00 311.00 185.00 311.00
C 178.48 296.77 170.78 282.33 161.00 270.00
C 154.44 270.92 148.35 273.44 142.00 275.00 Z"/>
</g>
<g fill="None" fill-opacity="0.0" stroke="#2E8A56" stroke-opacity="1.00" stroke-width="0.3"><path d="
M 424.00 280.00 
C 421.68 279.22 419.17 279.23 417.00 278.00
C 406.55 318.28 354.76 321.44 325.00 301.00
C 327.24 278.93 347.83 297.39 361.00 296.00 C 375.51 298.46 393.11 286.80 391.00 271.00
C 388.65 268.75 384.17 270.61 381.00 270.00
C 382.78 287.06 361.62 288.31 350.07 283.93 C 338.92 282.15 323.31 270.10 319.92 287.92 C 309.93 300.04 317.99 312.54 331.93 315.07 C 344.69 319.85 357.85 323.46 372.00 323.00 C 395.37 321.72 422.56 304.49 424.00 280.00 Z"/>
</g>
<g fill="None" fill-opacity="0.0" stroke="#000000" stroke-opacity="1.00" stroke-width="0.3"><path d="
M 417.00 278.00 
C 408.25 275.92 399.87 272.48 391.00 271.00
C 393.11 286.80 375.51 298.46 361.00 296.00 C 347.83 297.39 327.24 278.93 325.00 301.00
C 354.76 321.44 406.55 318.28 417.00 278.00 Z"/>
</g>
<g fill="None" fill-opacity="0.0" stroke="#000000" stroke-opacity="1.00" stroke-width="0.3"><path d="
M 108.00 278.00 
C 101.09 275.63 93.62 275.36 87.00 272.00
C 87.00 285.00 87.00 298.00 87.00 311.00
C 94.00 311.00 101.00 311.00 108.00 311.00
C 108.00 300.00 108.00 289.00 108.00 278.00 Z"/>
</g>
<g fill="#000000" fill-opacity="1.00" stroke="None">
<path d="
M 0.00 512.00 
L 512.00 512.00
L 512.00 0.00
L 0.00 0.00
L 0.00 512.00
M 427.00 252.00 
C 438.13 250.75 449.87 250.01 460.00 255.00
C 459.04 262.63 456.89 270.27 459.00 278.00
C 467.67 295.37 471.08 321.93 456.75 337.75 C 444.80 355.99 420.51 356.95 402.33 348.67 C 379.70 338.38 359.45 355.43 337.00 354.00 C 316.42 349.94 294.24 343.98 274.92 355.92 C 254.48 364.37 230.84 358.35 210.93 352.07 C 168.71 330.98 126.08 365.11 82.00 361.00 C 63.21 360.86 37.40 354.09 35.01 331.99 C 25.94 309.11 46.20 290.26 42.00 267.00
C 40.68 260.86 39.69 254.57 40.00 248.00
C 51.82 243.24 64.73 242.25 78.00 243.00
C 78.00 228.33 78.00 213.67 78.00 199.00 C 80.00 186.83 71.20 165.54 89.22 165.22 C 123.16 159.56 172.64 158.53 184.31 198.69 C 186.39 211.30 188.31 227.00 183.00 239.00
C 200.18 238.31 216.77 239.83 233.00 243.00
C 233.00 229.67 233.00 216.33 233.00 203.00
C 220.33 203.00 207.67 203.00 195.00 203.00
C 195.00 191.00 195.00 179.00 195.00 167.00
C 234.00 167.00 273.00 167.00 312.00 167.00
C 312.00 179.00 312.00 191.00 312.00 203.00
C 300.33 203.00 288.67 203.00 277.00 203.00
C 277.00 214.67 277.00 226.33 277.00 238.00
C 299.87 227.25 321.95 243.69 344.00 248.00
C 312.97 233.29 314.55 186.64 343.70 170.70 C 357.45 160.87 376.17 158.55 392.22 163.78 C 405.39 167.02 429.91 175.61 417.08 193.08 C 409.22 214.92 388.58 194.86 373.93 198.93 C 353.69 207.41 379.22 223.25 389.70 227.31 C 401.97 235.66 417.07 240.26 427.00 252.00 Z"/>
</g>
<g fill="#2F8A58" fill-opacity="1.00" stroke="None">
<path d="
M 344.00 248.00 
C 350.03 250.23 357.19 248.87 363.00 247.00
C 336.34 240.47 318.00 205.29 342.75 184.75 C 352.46 174.21 367.27 169.20 381.22 171.78 C 391.66 174.44 418.22 176.47 406.00 192.00
C 388.22 183.78 352.29 184.35 354.78 211.22 C 363.66 229.10 385.13 237.19 402.00 246.00
C 409.83 249.71 418.47 250.66 427.00 252.00
C 417.07 240.26 401.97 235.66 389.70 227.31 C 379.22 223.25 353.69 207.41 373.93 198.93 C 388.58 194.86 409.22 214.92 417.08 193.08 C 429.91 175.61 405.39 167.02 392.22 163.78 C 376.17 158.55 357.45 160.87 343.70 170.70 C 314.55 186.64 312.97 233.29 344.00 248.00 Z"/>
</g>
<g fill="#308A57" fill-opacity="1.00" stroke="None">
<path d="
M 78.00 243.00 
C 80.92 244.28 83.90 245.25 87.00 246.00
C 87.00 222.67 87.00 199.33 87.00 176.00
C 109.47 170.96 137.49 167.60 158.23 179.77 C 178.96 191.75 179.11 220.83 172.00 241.00
C 175.60 240.16 178.98 238.33 183.00 239.00
C 188.31 227.00 186.39 211.30 184.31 198.69 C 172.64 158.53 123.16 159.56 89.22 165.22 C 71.20 165.54 80.00 186.83 78.00 199.00 C 78.00 213.67 78.00 228.33 78.00 243.00 Z"/>
</g>
<g fill="#2E8B57" fill-opacity="1.00" stroke="None">
<path d="
M 233.00 243.00 
C 236.15 244.28 239.45 245.18 243.00 245.00
C 243.00 228.00 243.00 211.00 243.00 194.00
C 229.33 194.00 215.67 194.00 202.00 194.00
C 202.00 187.67 202.00 181.33 202.00 175.00
C 236.67 175.00 271.33 175.00 306.00 175.00
C 306.00 181.33 306.00 187.67 306.00 194.00
C 293.00 194.00 280.00 194.00 267.00 194.00
C 267.00 209.67 267.00 225.33 267.00 241.00
C 270.43 240.38 273.53 238.62 277.00 238.00
C 277.00 226.33 277.00 214.67 277.00 203.00
C 288.67 203.00 300.33 203.00 312.00 203.00
C 312.00 191.00 312.00 179.00 312.00 167.00
C 273.00 167.00 234.00 167.00 195.00 167.00
C 195.00 179.00 195.00 191.00 195.00 203.00
C 207.67 203.00 220.33 203.00 233.00 203.00
C 233.00 216.33 233.00 229.67 233.00 243.00 Z"/>
</g>
<g fill="#EEF7FD" fill-opacity="1.00" stroke="None">
<path d="
M 363.00 247.00 
C 375.09 246.45 390.27 243.69 402.00 246.00
C 385.13 237.19 363.66 229.10 354.78 211.22 C 352.29 184.35 388.22 183.78 406.00 192.00
C 418.22 176.47 391.66 174.44 381.22 171.78 C 367.27 169.20 352.46 174.21 342.75 184.75 C 318.00 205.29 336.34 240.47 363.00 247.00 Z"/>
</g>
<g fill="#EFF7FE" fill-opacity="1.00" stroke="None">
<path d="
M 87.00 246.00 
C 113.10 259.98 147.18 255.06 172.00 241.00
C 179.11 220.83 178.96 191.75 158.23 179.77 C 137.49 167.60 109.47 170.96 87.00 176.00
C 87.00 199.33 87.00 222.67 87.00 246.00
M 107.00 240.00 
C 107.00 222.67 107.00 205.33 107.00 188.00
C 127.54 185.50 158.95 187.01 156.00 215.00 C 158.39 242.10 127.14 242.10 107.00 240.00 Z"/>
</g>
<g fill="#EFF7FE" fill-opacity="1.00" stroke="None">
<path d="
M 243.00 245.00 
C 251.37 245.45 259.89 244.00 267.00 241.00
C 267.00 225.33 267.00 209.67 267.00 194.00
C 280.00 194.00 293.00 194.00 306.00 194.00
C 306.00 187.67 306.00 181.33 306.00 175.00
C 271.33 175.00 236.67 175.00 202.00 175.00
C 202.00 181.33 202.00 187.67 202.00 194.00
C 215.67 194.00 229.33 194.00 243.00 194.00
C 243.00 211.00 243.00 228.00 243.00 245.00 Z"/>
</g>
<g fill="#2F8B57" fill-opacity="1.00" stroke="None">
<path d="
M 107.00 240.00 
C 127.14 242.10 158.39 242.10 156.00 215.00 C 158.95 187.01 127.54 185.50 107.00 188.00
C 107.00 205.33 107.00 222.67 107.00 240.00
M 114.00 233.00 
C 114.00 220.67 114.00 208.33 114.00 196.00
C 127.84 194.41 149.14 195.00 147.00 214.00 C 150.49 233.77 128.06 234.77 114.00 233.00 Z"/>
</g>
<g fill="#000000" fill-opacity="1.00" stroke="None">
<path d="
M 114.00 233.00 
C 128.06 234.77 150.49 233.77 147.00 214.00 C 149.14 195.00 127.84 194.41 114.00 196.00
C 114.00 208.33 114.00 220.67 114.00 233.00 Z"/>
</g>
<g fill="#68C59C" fill-opacity="1.00" stroke="None">
<path d="
M 277.00 238.00 
C 273.53 238.62 270.43 240.38 267.00 241.00
C 259.89 244.00 251.37 245.45 243.00 245.00
C 239.45 245.18 236.15 244.28 233.00 243.00
C 216.77 239.83 200.18 238.31 183.00 239.00
C 178.98 238.33 175.60 240.16 172.00 241.00
C 147.18 255.06 113.10 259.98 87.00 246.00
C 83.90 245.25 80.92 244.28 78.00 243.00
C 64.73 242.25 51.82 243.24 40.00 248.00
C 39.69 254.57 40.68 260.86 42.00 267.00
C 54.46 266.14 67.85 263.11 79.00 269.00
C 81.80 269.52 84.45 270.64 87.00 272.00
C 93.62 275.36 101.09 275.63 108.00 278.00
C 110.58 279.82 114.02 278.67 117.00 279.00
C 123.16 278.93 129.51 279.66 135.00 277.00
C 137.72 277.63 139.41 274.93 142.00 275.00
C 148.35 273.44 154.44 270.92 161.00 270.00
C 163.10 268.38 166.29 267.73 169.00 267.00
C 190.25 257.73 214.14 263.50 234.00 272.00
C 237.01 272.21 239.77 273.56 243.00 273.00
C 251.40 273.25 259.46 272.05 267.00 269.00
C 270.53 267.65 273.50 265.08 277.00 264.00
C 294.35 257.65 311.26 266.67 327.67 270.33 C 344.58 274.95 364.25 275.87 381.00 270.00
C 384.17 270.61 388.65 268.75 391.00 271.00
C 399.87 272.48 408.25 275.92 417.00 278.00
C 419.17 279.23 421.68 279.22 424.00 280.00
C 435.91 284.72 447.23 270.71 459.00 278.00
C 456.89 270.27 459.04 262.63 460.00 255.00
C 449.87 250.01 438.13 250.75 427.00 252.00
C 418.47 250.66 409.83 249.71 402.00 246.00
C 390.27 243.69 375.09 246.45 363.00 247.00
C 357.19 248.87 350.03 250.23 344.00 248.00
C 321.95 243.69 299.87 227.25 277.00 238.00 Z"/>
</g>
<g fill="#3BA47D" fill-opacity="1.00" stroke="None">
<path d="
M 169.00 267.00 
C 173.30 275.54 178.92 283.23 183.30 291.70 C 186.81 299.53 197.74 309.16 193.90 316.90 C 180.60 317.13 167.30 316.94 154.00 317.00
C 149.11 303.40 137.61 290.41 135.00 277.00
C 129.51 279.66 123.16 278.93 117.00 279.00
C 117.00 291.67 117.00 304.33 117.00 317.00
C 104.00 317.00 91.00 317.00 78.00 317.00
C 78.67 301.17 76.67 284.01 79.00 269.00
C 67.85 263.11 54.46 266.14 42.00 267.00
C 46.20 290.26 25.94 309.11 35.01 331.99 C 37.40 354.09 63.21 360.86 82.00 361.00 C 126.08 365.11 168.71 330.98 210.93 352.07 C 230.84 358.35 254.48 364.37 274.92 355.92 C 294.24 343.98 316.42 349.94 337.00 354.00 C 359.45 355.43 379.70 338.38 402.33 348.67 C 420.51 356.95 444.80 355.99 456.75 337.75 C 471.08 321.93 467.67 295.37 459.00 278.00
C 447.23 270.71 435.91 284.72 424.00 280.00
C 422.56 304.49 395.37 321.72 372.00 323.00 C 357.85 323.46 344.69 319.85 331.93 315.07 C 317.99 312.54 309.93 300.04 319.92 287.92 C 323.31 270.10 338.92 282.15 350.07 283.93 C 361.62 288.31 382.78 287.06 381.00 270.00
C 364.25 275.87 344.58 274.95 327.67 270.33 C 311.26 266.67 294.35 257.65 277.00 264.00
C 273.18 281.67 288.78 320.83 259.00 317.00 C 250.08 316.05 231.57 321.33 233.00 307.00 C 233.67 295.50 231.67 282.68 234.00 272.00
C 214.14 263.50 190.25 257.73 169.00 267.00 Z"/>
</g>
<g fill="#2F8B57" fill-opacity="1.00" stroke="None">
<path d="
M 267.00 269.00 
C 267.00 282.67 267.00 296.33 267.00 310.00
C 259.00 310.00 251.00 310.00 243.00 310.00
C 243.00 297.67 243.00 285.33 243.00 273.00
C 239.77 273.56 237.01 272.21 234.00 272.00
C 231.67 282.68 233.67 295.50 233.00 307.00 C 231.57 321.33 250.08 316.05 259.00 317.00 C 288.78 320.83 273.18 281.67 277.00 264.00
C 273.50 265.08 270.53 267.65 267.00 269.00 Z"/>
</g>
<g fill="#2E8A56" fill-opacity="1.00" stroke="None">
<path d="
M 161.00 270.00 
C 170.78 282.33 178.48 296.77 185.00 311.00
C 177.00 311.00 169.00 311.00 161.00 311.00
C 155.30 298.83 147.83 287.28 142.00 275.00
C 139.41 274.93 137.72 277.63 135.00 277.00
C 137.61 290.41 149.11 303.40 154.00 317.00
C 167.30 316.94 180.60 317.13 193.90 316.90 C 197.74 309.16 186.81 299.53 183.30 291.70 C 178.92 283.23 173.30 275.54 169.00 267.00
C 166.29 267.73 163.10 268.38 161.00 270.00 Z"/>
</g>
<g fill="#2F8B57" fill-opacity="1.00" stroke="None">
<path d="
M 117.00 279.00 
C 114.02 278.67 110.58 279.82 108.00 278.00
C 108.00 289.00 108.00 300.00 108.00 311.00
C 101.00 311.00 94.00 311.00 87.00 311.00
C 87.00 298.00 87.00 285.00 87.00 272.00
C 84.45 270.64 81.80 269.52 79.00 269.00
C 76.67 284.01 78.67 301.17 78.00 317.00
C 91.00 317.00 104.00 317.00 117.00 317.00
C 117.00 304.33 117.00 291.67 117.00 279.00 Z"/>
</g>
<g fill="#000000" fill-opacity="1.00" stroke="None">
<path d="
M 243.00 273.00 
C 243.00 285.33 243.00 297.67 243.00 310.00
C 251.00 310.00 259.00 310.00 267.00 310.00
C 267.00 296.33 267.00 282.67 267.00 269.00
C 259.46 272.05 251.40 273.25 243.00 273.00 Z"/>
</g>
<g fill="#000000" fill-opacity="1.00" stroke="None">
<path d="
M 142.00 275.00 
C 147.83 287.28 155.30 298.83 161.00 311.00
C 169.00 311.00 177.00 311.00 185.00 311.00
C 178.48 296.77 170.78 282.33 161.00 270.00
C 154.44 270.92 148.35 273.44 142.00 275.00 Z"/>
</g>
<g fill="#2E8A56" fill-opacity="1.00" stroke="None">
<path d="
M 424.00 280.00 
C 421.68 279.22 419.17 279.23 417.00 278.00
C 406.55 318.28 354.76 321.44 325.00 301.00
C 327.24 278.93 347.83 297.39 361.00 296.00 C 375.51 298.46 393.11 286.80 391.00 271.00
C 388.65 268.75 384.17 270.61 381.00 270.00
C 382.78 287.06 361.62 288.31 350.07 283.93 C 338.92 282.15 323.31 270.10 319.92 287.92 C 309.93 300.04 317.99 312.54 331.93 315.07 C 344.69 319.85 357.85 323.46 372.00 323.00 C 395.37 321.72 422.56 304.49 424.00 280.00 Z"/>
</g>
<g fill="#000000" fill-opacity="1.00" stroke="None">
<path d="
M 417.00 278.00 
C 408.25 275.92 399.87 272.48 391.00 271.00
C 393.11 286.80 375.51 298.46 361.00 296.00 C 347.83 297.39 327.24 278.93 325.00 301.00
C 354.76 321.44 406.55 318.28 417.00 278.00 Z"/>
</g>
<g fill="#000000" fill-opacity="1.00" stroke="None">
<path d="
M 108.00 278.00 
C 101.09 275.63 93.62 275.36 87.00 272.00
C 87.00 285.00 87.00 298.00 87.00 311.00
C 94.00 311.00 101.00 311.00 108.00 311.00
C 108.00 300.00 108.00 289.00 108.00 278.00 Z"/>
</g>
</svg>